{"title":"The.Loud.House.S01E17a.Attention.Deficit.1080p.WebRip-RnC.mp4","uid":15484551,"size":304554056,"categoryP":"video","categoryS":"hd___tv_shows","magnet":"?xt=urn:btih:7b45326c15991627f70aac67914274a4a8f9e4ab&amp;dn=The.Loud.House.S01E17a.Attention.Deficit.1080p.WebRip-RnC.mp4&amp;tr=udp%3A%2F%2Ftracker.leechers-paradise.org%3A6969&amp;tr=udp%3A%2F%2Fzer0day.ch%3A1337&amp;tr=udp%3A%2F%2Fopen.demonii.com%3A1337&amp;tr=udp%3A%2F%2Ftracker.coppersurfer.tk%3A6969&amp;tr=udp%3A%2F%2Fexodus.desync.com%3A6969","seeders":2,"leechers":3,"uploader":"Anon_up","files":1,"time":1470304833,"description":"[img]http://save.wootake.com/files/The.Loud.House.S01E17a.Attention.Deficit.1080p.NICK.WebRip.AAC2.0.H.264-RnC.jpg[/img]\r\n\r\n[quote]Attention Deficit\r\n\r\nLincoln starts spending more time at Clyde's house when his fathers give him more attention than what he gets at home.[/quote]\r\n\r\nSubs\r\n\r\n[code]General\r\nComplete name                  : The.Loud.House.S01E17a.Attention.Deficit.1080p.NICK.WebRip.AAC2.0.H.264-RnC.mp4\r\nFormat                         : MPEG-4\r\nFormat profile                 : Base Media\r\nCodec ID                       : isom (isom/iso2/avc1/mp41)\r\nFile size                      : 290 MiB\r\nDuration                       : 10 min\r\nOverall bit rate               : 3 776 kb/s\r\nWriting application            : Lavf57.29.100\r\n\r\nVideo\r\nID                             : 1\r\nFormat                         : AVC\r\nFormat/Info                    : Advanced Video Codec\r\nFormat profile                 :   \r\nFormat settings, CABAC         : Yes\r\nFormat settings, ReFrames      : 4 frames\r\nCodec ID                       : avc1\r\nCodec ID/Info                  : Advanced Video Coding\r\nDuration                       : 10 min\r\nBit rate                       : 3 643 kb/s\r\nWidth                          : 1 920 pixels\r\nHeight                         : 1 080 pixels\r\nDisplay aspect ratio           : 16:9\r\nFrame rate mode                : Constant\r\nFrame rate                     : 23.976 (24000/1001) FPS\r\nColor space                    : YUV\r\nChroma subsampling             : 4:2:0\r\nBit depth                      : 8 bits\r\nScan type                      : Progressive\r\nBits/(Pixel*Frame)             : 0.073\r\nStream size                    : 280 MiB (96%)\r\nWriting library                : x264 core 148\r\nEncoding settings              : cabac=1 / ref=4 / deblock=1:0:0 / analyse=0x3:0x113 / me=umh / subme=10 / psy=1 / psy_rd=1.00:0.15 / mixed_ref=1 / me_range=32 / chroma_me=1 / trellis=2 / 8x8dct=1 / cqm=0 / deadzone=21,11 / fast_pskip=1 / chroma_qp_offset=-3 / threads=24 / lookahead_threads=6 / sliced_threads=0 / nr=0 / decimate=1 / interlaced=0 / bluray_compat=0 / constrained_intra=0 / bframes=3 / b_pyramid=0 / b_adapt=2 / b_bias=0 / direct=3 / weightb=1 / open_gop=0 / weightp=2 / keyint=48 / keyint_min=4 / scenecut=0 / intra_refresh=0 / rc_lookahead=48 / rc=crf / mbtree=1 / crf=19.0 / qcomp=0.75 / qpmin=10 / qpmax=51 / qpstep=4 / vbv_maxrate=5000 / vbv_bufsize=10000 / crf_max=0.0 / nal_hrd=none / filler=0 / ip_ratio=1.40 / aq=1:0.80\r\n\r\nAudio\r\nID                             : 2\r\nFormat                         : AAC\r\nFormat/Info                    : Advanced Audio Codec\r\nFormat profile                 : LC\r\nCodec ID                       : 40\r\nDuration                       : 10 min\r\nDuration_LastFrame             : -17 ms\r\nBit rate mode                  : Constant\r\nBit rate                       : 128 kb/s\r\nChannel(s)                     : 2 channels\r\nChannel positions              : Front: L R\r\nSampling rate                  : 48.0 kHz\r\nFrame rate                     : 46.875 FPS (1024 spf)\r\nCompression mode               : Lossy\r\nStream size                    : 9.84 MiB (3%)\r\n\r\nOther\r\nID                             : 3\r\nType                           : Time code\r\nFormat                         : QuickTime TC\r\nDuration                       : 10 min\r\nTime code of first frame       : 01:00:59:23\r\nTime code, striped             : Yes\r\nLanguage                       : English\r\n\r\n[/code]","torrent":{"xt":"urn:btih:7b45326c15991627f70aac67914274a4a8f9e4ab","amp;dn":"The.Loud.House.S01E17a.Attention.Deficit.1080p.WebRip-RnC.mp4","amp;tr":["udp%3A%2F%2Ftracker.leechers-paradise.org%3A6969","udp%3A%2F%2Fzer0day.ch%3A1337","udp%3A%2F%2Fopen.demonii.com%3A1337","udp%3A%2F%2Ftracker.coppersurfer.tk%3A6969","udp%3A%2F%2Fexodus.desync.com%3A6969"],"infoHash":"7b45326c15991627f70aac67914274a4a8f9e4ab","infoHashBuffer":{"type":"Buffer","data":[123,69,50,108,21,153,22,39,247,10,172,103,145,66,116,164,168,249,228,171]},"announce":[],"urlList":[]}}